<?xml version="1.0" encoding="UTF-8"?>
<svg viewBox="0 0 793.7 1122.5" xmlns="http://www.w3.org/2000/svg">
 <g stroke="#000">
  <g fill="none">
   <g stroke-width="1.25">
    <path d="m297.79 420l41.948 207.5"/>
    <path d="m257.94 431.7l81.798 196.33"/>
    <path d="m220.18 449.79l123.75 179.3"/>
    <path d="m187.15 474.8l156.25 153.77"/>
    <path d="m164.08 506.72l179.85 117.05"/>
    <path d="m147.82 540.78l194.01 89.386"/>
    <path d="m135.24 579.08l206.59 40.437"/>
    <path d="m134.71 616.86l201.87 10.109"/>
    <path d="m153.59 690.82l186.67-64.379"/>
    <path d="m174.04 721.68l167.79-102.69"/>
    <path d="m200.26 750.94l142.1-127.69"/>
    <path d="m230.14 774.88l110.64-153.23"/>
    <path d="m263.7 791.38l76.554-169.73"/>
    <path d="m298.31 804.15l43.521-183.56"/>
    <path d="m375.91 806.27l-33.034-187.82"/>
    <path d="m411.57 796.16l-77.079-170.79"/>
    <path d="m445.65 781.27l-100.15-158.02"/>
    <path d="m476.06 758.92l-143.15-133.55"/>
    <path d="m501.23 731.25l-163.07-115.46"/>
    <path d="m520.63 700.39l-183-70.232"/>
    <path d="m534.27 665.28l-194.53-50.014"/>
    <path d="m541.08 628.03l-203.97 1.5962"/>
    <path d="m539.51 587.6l-200.82 28.199"/>
    <path d="m529.02 548.76l-190.86 81.405"/>
    <path d="m514.34 515.24l-175.13 102.69"/>
    <path d="m488.12 483.31l-141.57 140.46"/>
    <path d="m458.76 455.65l-119.55 160.15"/>
    <path d="m424.68 434.36l-85.468 191.54"/>
    <path d="m384.3 421.06l-44.569 203.78"/>
    <path d="m626.03 655.17l-4.7191 73.956"/>
    <path d="m658.01 663.15l-31.985 75.021"/>
    <path d="m684.75 683.37l-63.446 44.693"/>
    <path d="m696.81 714.76l-67.116 19.154"/>
    <path d="m695.76 747.75l-72.884-18.622"/>
    <path d="m680.56 779.14l-57.154-47.354"/>
    <path d="m653.82 798.29c-1.0486-2.1283-30.936-66.508-30.936-66.508"/>
    <path d="m620.78 807.87l5.2434-73.956"/>
    <path d="m589.32 800.95l33.034-72.36"/>
    <path d="m563.1 781.8l66.068-48.95"/>
    <path d="m547.9 719.55l81.274 16.494"/>
    <path d="m565.73 688.16l59.775 46.821"/>
   </g>
   <path d="m341.95 333.27l-4.1948 295.83" stroke-linecap="round" stroke-width="12.125"/>
  </g>
  <g stroke-linecap="round">
   <path d="m628.24 735.51a3.1461 3.1924 0 1 1 -6.2922 0 3.1461 3.1924 0 1 1 6.2922 0z" fill="#f00" stroke-width="11.125"/>
   <g stroke-width="6.25">
    <path d="m349.29 629.1a13.633 13.834 0 1 1 -27.266 0 13.633 13.834 0 1 1 27.266 0z"/>
    <path d="m351.39 614.73a13.633 13.834 0 1 1 -27.266 0 13.633 13.834 0 1 1 27.266 0z"/>
   </g>
   <path d="m623 728.59a3.1461 3.1924 0 1 1 -6.2921 0 3.1461 3.1924 0 1 1 6.2921 0z" fill="#f00" stroke-width="11.125"/>
  </g>
  <g fill="none">
   <g stroke-miterlimit="0">
    <path d="m699.01 731.79a75.49 76.601 0 1 1 -150.98 0 75.49 76.601 0 1 1 150.98 0z" stroke-width="5.861"/>
    <path d="m538.86 611.01a201.9 195.8 0 1 1 -403.8 0 201.9 195.8 0 1 1 403.8 0z" stroke-width="4.438"/>
   </g>
   <path d="m332.51 327.42l19.401 13.834" fill-opacity=".75" fill-rule="evenodd" stroke-linecap="round" stroke-width="11.125"/>
  </g>
  <g fill="#f00" stroke-linecap="round" stroke-width="11.125">
   <path d="m336.7 327.95a3.1461 3.1924 0 1 1 -6.2922 0 3.1461 3.1924 0 1 1 6.2922 0z"/>
   <path d="m353.48 340.72a3.1461 3.1924 0 1 1 -6.2922 0 3.1461 3.1924 0 1 1 6.2922 0z"/>
   <path d="m345.09 358.28a3.1461 3.1924 0 1 1 -6.2922 0 3.1461 3.1924 0 1 1 6.2922 0z"/>
   <path d="m344.57 394.99a3.1461 3.1924 0 1 1 -6.2922 0 3.1461 3.1924 0 1 1 6.2922 0z"/>
  </g>
  <g fill-rule="evenodd">
   <path d="m341.86 365.64s-5.2921-1.7511-6.4426 0.70044c-1.1504 2.4515-1.0354 11.44-1.0354 11.44s-0.11505 5.6034 0.80533 6.5374c0.92035 0.9339 13 2.218 13 2.218s7.0178-0.70044 8.6285 0.46695c1.6106 1.1674 8.7435 8.8722 12.195 11.09 3.4514 2.218 49.355 19.145 50.735 20.313 1.3805 1.1674 0.80533 3.5022 2.3009 4.4361s4.8319-1.4008 7.2479-0.58371c2.416 0.81717 47.399 26.266 61.665 42.96s36.009 42.61 43.488 62.806c7.478 20.196 17.027 46.229 18.177 51.248 1.1504 5.0198 17.487 63.389 17.487 63.389s0.8053 1.2841 0.46014 2.1013c-0.34515 0.81714-2.8762 1.6343-2.3009 3.3854 0.5752 1.7511 4.0266 1.7511 4.0266 1.7511s2.9912 10.973 2.9912 12.724 0.80536 7.1211 1.6107 9.5726c0.8053 2.4515 5.5222 13.892 10.124 20.429 4.6019 6.5374 8.5134 12.258 11.85 16.343 3.3363 4.0859 15.531 18.211 15.531 18.211l6.4426-5.37s-9.2036-6.1871-14.956-16.227c-5.7523-10.04-16.797-34.204-17.602-37.24-0.80536-3.0352-17.372-56.385-19.903-66.191-2.531-9.8062-16.106-59.42-25.08-76.931-8.9736-17.511-23.239-40.859-33.478-52.299s-41.877-43.194-57.523-49.964c-15.646-6.7708-23.469-11.09-24.965-11.557-1.4956-0.46695-2.531-10.506 0.80533-11.09 3.3363-0.58371 23.814 11.674 31.408 11.557 7.593-0.11673 9.5488-10.506 9.5488-10.506s1.0354-2.218 1.6106-3.2686c0.57523-1.0507 16.452-8.6387 15.876-14.359-0.57526-5.7202-12.08-8.4052-14.841-8.8722-2.7611-0.46698-50.045-1.5176-52.001-1.7511-1.9558-0.23346-9.4338 0.46692-10.584-0.11679-1.1505-0.58365-2.7611-3.3854-5.5222-3.2686-2.7611 0.11673-5.4072 2.1013-7.1329 4.6695-1.7257 2.5683-2.6461 5.1365-1.7257 6.4207 0.92035 1.2842 15.071 2.8017 17.487 3.3854 2.416 0.58371 11.735 3.5022 13 4.903 1.2655 1.4008 7.8232 3.5022 9.0886 4.2026 1.2655 0.70047 7.0178 7.1211 11.16 8.1718 4.1417 1.0507 15.646-0.58371 16.797-1.6343 1.1504-1.0507 2.7611-1.4009 2.7611-1.4009s2.531 10.974-4.6019 9.5726c-7.1329-1.4008-9.0886-0.93387-16.222-4.6695-7.1329-3.7357-10.699-7.8215-14.726-7.0044-4.0266 0.81717-6.0974 3.8524-6.3275 6.6541-0.23007 2.8018 0 7.1211 0 7.1211s-17.602-7.4713-19.903-8.2885c-2.3009-0.8172-18.177-5.6035-18.177-5.6035s-4.3718-0.9339-6.0974-2.685c-1.7257-1.7511-9.4338-14.359-13.69-16.344-4.2567-1.9846-20.593-5.0198-20.593-5.0198l-2.8762-6.5374z" stroke-width=".312"/>
   <g fill="none">
    <path d="m358.1 378.52l55.886 4.7257" stroke-width="3.125"/>
    <path d="m335.13 632.82l-3.1461 72.892" stroke-width="6.25"/>
   </g>
  </g>
  <g stroke-width="6.25">
   <path d="m334.83 704.3a3.4082 3.4584 0 1 1 -6.8165 0 3.4082 3.4584 0 1 1 6.8165 0z" fill="#f00" stroke-linecap="round"/>
   <g fill="none">
    <path d="m334.89 690.96a3.4082 3.4584 0 1 1 -6.8166 0 3.4082 3.4584 0 1 1 6.8166 0z" stroke-linecap="round"/>
    <g fill-opacity=".75" fill-rule="evenodd">
     <path d="m322.89 693.82c0 0.73279-0.10315 16.54-0.10315 16.54l17.744-8.1653-0.619-16.121-17.022 7.7465z" stroke-linejoin="round"/>
     <path d="m323.41 701.04c0.61899 0 16.919-6.6998 16.919-6.6998" stroke-linecap="round"/>
    </g>
   </g>
  </g>
 </g>
</svg>
