<?xml version="1.0" encoding="utf-8"?>
<!-- Generator: Adobe Illustrator 16.0.0, SVG Export Plug-In . SVG Version: 6.00 Build 0)  -->
<!DOCTYPE svg PUBLIC "-//W3C//DTD SVG 1.1//EN" "http://www.w3.org/Graphics/SVG/1.1/DTD/svg11.dtd">
<svg version="1.1" id="Layer_1" xmlns="http://www.w3.org/2000/svg" xmlns:xlink="http://www.w3.org/1999/xlink" x="0px" y="0px"
	 width="314px" height="589.583px" viewBox="0 0 314 589.583" enable-background="new 0 0 314 589.583" xml:space="preserve">
<g>
	<path d="M177.655,285.287c0.932,0.265,1.901,0.56,2.689,0.688c0.408,0.098,0.839,0.162,1.28,0.209
		c0.437,0.057,0.873,0.123,1.31,0.127c1.745,0.109,3.482-0.046,5.15-0.486c1.669-0.437,3.265-1.157,4.747-2.102
		c1.482-0.944,2.852-2.108,4.102-3.414c1.25-1.307,2.384-2.755,3.413-4.288c1.03-1.533,1.958-3.152,2.799-4.823
		c1.68-3.345,3.022-6.893,4.082-10.514l0.003-0.011c0.082-0.281,0.229-0.535,0.41-0.741c1.465-1.645,2.988-3.205,4.451-4.739
		c0.73-0.768,1.445-1.532,2.105-2.301c0.659-0.768,1.267-1.546,1.729-2.316c0.473-0.77,0.763-1.52,0.808-2.158
		c0.017-0.322,0.008-0.625-0.092-0.936c-0.072-0.312-0.239-0.633-0.429-0.963c-0.414-0.659-1.042-1.321-1.758-1.937
		c-0.372-0.303-0.742-0.607-1.149-0.892c-0.388-0.297-0.825-0.562-1.236-0.844l-0.116-0.08c-0.066-0.045-0.131-0.101-0.185-0.157
		c-0.509-0.532-1.056-1.041-1.529-1.594c-0.488-0.544-0.977-1.089-1.424-1.661c-0.467-0.559-0.908-1.134-1.333-1.721
		c-0.441-0.575-0.845-1.176-1.248-1.776c-0.808-1.2-1.562-2.435-2.251-3.707c-0.363-0.626-0.681-1.277-1-1.928
		c-0.333-0.644-0.627-1.307-0.91-1.976c-0.3-0.661-0.571-1.335-0.813-2.024c-0.258-0.681-0.509-1.364-0.708-2.07
		c-0.211-0.7-0.44-1.394-0.592-2.115c-0.157-0.718-0.366-1.421-0.463-2.156c-0.104-0.731-0.271-1.451-0.319-2.193
		c-0.052-0.741-0.149-1.477-0.159-2.222c0.005-0.747-0.014-1.493,0.017-2.24l0.21-2.242c0.057-0.615,0.434-1.123,0.95-1.376
		l0.196-0.096l0.681-0.332c0.215-0.145,0.44-0.267,0.652-0.421c0.422-0.316,0.825-0.673,1.201-1.077
		c0.372-0.408,0.718-0.853,1.036-1.326c0.314-0.478,0.596-0.983,0.856-1.504c0.251-0.528,0.472-1.071,0.669-1.627
		c0.183-0.561,0.347-1.128,0.473-1.705c0.249-1.152,0.367-2.332,0.324-3.476c-0.02-0.572-0.086-1.132-0.191-1.672
		c-0.105-0.541-0.272-1.044-0.462-1.524c-0.221-0.454-0.454-0.891-0.76-1.236c-0.148-0.177-0.298-0.351-0.477-0.481
		c-0.158-0.162-0.352-0.269-0.538-0.385c-0.376-0.232-0.814-0.366-1.273-0.478l-0.732-0.089l-0.779,0.009
		c-0.536,0.057-1.08,0.114-1.639,0.27c-0.555,0.102-1.115,0.342-1.675,0.512l-0.174,0.053c-0.949,0.288-1.953-0.248-2.241-1.198
		c-0.076-0.251-0.094-0.515-0.063-0.76c0.059-0.434-0.146-1.298-0.472-2.074c-0.306-0.8-0.76-1.611-1.237-2.401
		c-0.989-1.58-2.188-3.082-3.502-4.47c-1.315-1.388-2.753-2.667-4.285-3.796c-0.768-0.565-1.563-1.08-2.37-1.569l-1.235-0.68
		l-1.266-0.596l-1.292-0.505c-0.434-0.155-0.876-0.266-1.313-0.404c-0.881-0.226-1.769-0.386-2.656-0.459
		c-0.887-0.062-1.769-0.042-2.634,0.076c-0.863,0.129-1.711,0.34-2.523,0.662c-0.422,0.116-0.794,0.367-1.193,0.547
		c-0.403,0.172-0.766,0.437-1.137,0.68l-0.559,0.364l-0.52,0.433c-0.336,0.303-0.715,0.546-1.018,0.898l-0.957,0.988l-0.873,1.09
		c-0.302,0.354-0.569,0.74-0.821,1.143l-0.78,1.183l-0.014,0.021c-0.556,0.841-1.688,1.073-2.529,0.518
		c-0.003-0.002-0.014-0.009-0.017-0.011l-1.067-0.721c-0.355-0.241-0.735-0.44-1.1-0.664c-0.363-0.23-0.752-0.405-1.13-0.602
		c-0.376-0.204-0.764-0.375-1.156-0.534c-0.388-0.17-0.778-0.334-1.177-0.456c-0.396-0.132-0.79-0.284-1.19-0.367
		c-0.398-0.092-0.798-0.223-1.194-0.263c-0.396-0.053-0.797-0.148-1.182-0.141c-0.388-0.016-0.782-0.055-1.146,0l-0.558,0.042
		c-0.179,0.029-0.346,0.082-0.521,0.118c-0.361,0.052-0.667,0.195-0.976,0.327c-0.339,0.091-0.556,0.348-0.85,0.496
		c-0.254,0.204-0.47,0.452-0.709,0.678c-0.174,0.297-0.399,0.544-0.559,0.861c-0.131,0.34-0.311,0.645-0.424,1.004l-0.297,1.112
		l-0.033,0.125c-0.179,0.668-0.724,1.142-1.36,1.265c-2.23,0.427-4.42,1.087-6.502,1.992c-2.083,0.897-4.057,2.042-5.822,3.408
		c-1.752,1.364-3.314,2.994-4.271,4.803c-0.251,0.447-0.426,0.909-0.581,1.365c-0.131,0.457-0.241,0.915-0.255,1.356
		c-0.038,0.445,0.009,0.871,0.105,1.281c0.081,0.416,0.279,0.796,0.479,1.178l0.03,0.057c0.449,0.858,0.117,1.918-0.741,2.367
		c-0.016,0.008-0.039,0.02-0.055,0.028c-0.355,0.17-0.707,0.363-1.044,0.597c-0.335,0.239-0.661,0.504-0.969,0.8
		c-0.617,0.592-1.169,1.291-1.646,2.048c-0.478,0.758-0.881,1.579-1.202,2.432c-0.321,0.852-0.564,1.736-0.719,2.628
		c-0.308,1.776-0.259,3.617,0.305,5.151c0.134,0.386,0.313,0.742,0.514,1.074c0.199,0.334,0.44,0.628,0.698,0.903
		c0.131,0.135,0.281,0.249,0.416,0.379l0.46,0.329l0.504,0.275l0.542,0.226c0.881,0.366,1.298,1.377,0.932,2.258
		c-0.149,0.358-0.404,0.64-0.714,0.823l-0.005,0.003l-0.651,0.385l-0.592,0.451l-0.529,0.516l-0.46,0.581l-0.391,0.643
		c-0.104,0.234-0.227,0.456-0.323,0.696c-0.188,0.484-0.339,0.993-0.45,1.523c-0.104,0.533-0.168,1.083-0.206,1.642
		c-0.026,0.562-0.022,1.131,0.009,1.705c0.073,1.149,0.264,2.311,0.54,3.459c0.552,2.296,1.443,4.552,2.611,6.606
		c0.584,1.024,1.241,2.002,1.973,2.858c0.364,0.431,0.752,0.815,1.145,1.153c0.395,0.327,0.799,0.581,1.152,0.736l0.111,0.049
		c0.579,0.254,0.925,0.818,0.932,1.411l0.034,3.343c0.035,1.119-0.064,2.21-0.091,3.317c-0.038,1.104-0.084,2.207-0.178,3.3
		c-0.083,1.095-0.152,2.193-0.248,3.287l-0.319,3.273c-0.106,1.091-0.247,2.177-0.369,3.266c-0.258,2.178-0.548,4.337-0.875,6.523
		c-0.132,0.883-0.955,1.491-1.837,1.359c-0.882-0.132-1.491-0.955-1.358-1.837l0.002-0.018c0.312-2.116,0.596-4.269,0.844-6.41
		c0.118-1.073,0.254-2.145,0.356-3.219l0.306-3.22c0.091-1.074,0.155-2.146,0.235-3.22c0.09-1.074,0.132-2.145,0.166-3.214
		c0.022-1.067,0.118-2.147,0.08-3.203l-0.038-3.181l1.042,1.459c-0.815-0.34-1.474-0.79-2.057-1.267
		c-0.569-0.484-1.08-0.996-1.535-1.531c-0.916-1.067-1.675-2.202-2.348-3.373c-1.338-2.345-2.332-4.842-2.973-7.466
		c-0.318-1.312-0.544-2.657-0.635-4.035c-0.04-0.69-0.047-1.387-0.015-2.09c0.043-0.705,0.124-1.413,0.262-2.124
		c0.145-0.71,0.35-1.418,0.621-2.115c0.138-0.347,0.314-0.685,0.474-1.025c0.184-0.333,0.394-0.655,0.595-0.979
		c0.231-0.308,0.473-0.61,0.716-0.909c0.273-0.273,0.544-0.551,0.828-0.813c0.303-0.237,0.605-0.479,0.917-0.702l0.982-0.584
		l0.213,3.084l-0.869-0.358l-0.837-0.455c-0.264-0.182-0.529-0.362-0.785-0.555c-0.24-0.213-0.491-0.417-0.714-0.646
		c-0.904-0.916-1.561-2.03-1.981-3.173c-0.218-0.571-0.376-1.156-0.482-1.738c-0.118-0.583-0.184-1.167-0.21-1.745
		c-0.035-0.58-0.03-1.156,0.012-1.725c0.031-0.571,0.103-1.135,0.199-1.692c0.19-1.115,0.487-2.203,0.882-3.256
		c0.394-1.054,0.889-2.072,1.494-3.039c1.207-1.915,2.859-3.711,5.153-4.764l-0.767,2.45c-0.375-0.667-0.714-1.376-0.881-2.142
		c-0.183-0.755-0.256-1.539-0.201-2.292c0.032-0.76,0.196-1.482,0.399-2.176c0.224-0.681,0.486-1.344,0.818-1.948
		c0.644-1.225,1.447-2.307,2.328-3.284c0.882-0.977,1.846-1.849,2.859-2.642c2.03-1.579,4.244-2.863,6.568-3.872
		c2.322-1.016,4.754-1.756,7.241-2.238l-1.393,1.39l0.41-1.559c0.164-0.517,0.428-1.029,0.649-1.538
		c0.255-0.502,0.624-0.973,0.945-1.45c0.402-0.427,0.815-0.868,1.277-1.233c0.5-0.31,0.969-0.716,1.52-0.905
		c0.536-0.238,1.077-0.459,1.631-0.557c0.275-0.061,0.553-0.135,0.827-0.179l0.819-0.071c0.553-0.069,1.079-0.029,1.611-0.006
		c0.54,0.002,1.042,0.11,1.558,0.181c0.521,0.061,1.004,0.209,1.502,0.326c0.502,0.109,0.971,0.283,1.448,0.442
		c0.483,0.15,0.943,0.34,1.399,0.538c0.462,0.188,0.917,0.388,1.352,0.62c0.439,0.226,0.891,0.434,1.309,0.693
		c0.421,0.254,0.857,0.487,1.266,0.76l1.223,0.824l-2.559,0.527l0.882-1.349c0.285-0.454,0.592-0.897,0.943-1.316
		c0.339-0.426,0.668-0.858,1.019-1.275l1.146-1.192c0.362-0.413,0.832-0.739,1.247-1.108l0.646-0.534l0.705-0.47
		c0.473-0.312,0.934-0.637,1.458-0.874c0.517-0.243,1.003-0.547,1.556-0.716c1.066-0.423,2.187-0.708,3.319-0.877
		c1.137-0.159,2.28-0.187,3.407-0.109c1.128,0.088,2.231,0.286,3.307,0.561c0.527,0.161,1.066,0.301,1.584,0.484
		c0.51,0.197,1.026,0.384,1.53,0.595l1.477,0.69l1.42,0.777c0.923,0.553,1.823,1.136,2.685,1.767
		c1.723,1.263,3.316,2.676,4.783,4.215c1.464,1.542,2.807,3.205,3.966,5.046c0.567,0.935,1.11,1.891,1.535,2.976
		c0.412,1.085,0.838,2.212,0.72,3.811l-2.478-1.905c0.702-0.225,1.368-0.502,2.116-0.654c0.719-0.197,1.493-0.298,2.271-0.371
		c0.401-0.008,0.801-0.021,1.204-0.014c0.413,0.044,0.825,0.081,1.237,0.148c0.83,0.181,1.666,0.451,2.426,0.904
		c0.38,0.227,0.754,0.461,1.076,0.761c0.349,0.274,0.641,0.592,0.919,0.923c0.564,0.655,0.971,1.389,1.317,2.128
		c0.308,0.747,0.549,1.504,0.7,2.263c0.151,0.758,0.239,1.515,0.269,2.265c0.059,1.5-0.09,2.974-0.396,4.408
		c-0.155,0.717-0.355,1.422-0.583,2.12c-0.243,0.693-0.519,1.376-0.835,2.044c-0.328,0.665-0.689,1.316-1.102,1.945
		c-0.418,0.626-0.882,1.23-1.402,1.8c-0.524,0.567-1.108,1.093-1.748,1.57c-0.322,0.235-0.675,0.439-1.014,0.655
		c-0.358,0.192-0.733,0.363-1.102,0.539l1.146-1.472l-0.172,1.911c-0.024,0.641-0.003,1.286-0.01,1.929
		c0.009,0.644,0.102,1.29,0.145,1.935c0.04,0.646,0.196,1.287,0.286,1.931c0.082,0.646,0.277,1.279,0.417,1.918
		c0.133,0.642,0.346,1.268,0.537,1.898c0.178,0.634,0.408,1.254,0.646,1.873c0.219,0.624,0.469,1.238,0.746,1.842
		c0.259,0.611,0.528,1.218,0.838,1.809c0.295,0.597,0.587,1.195,0.924,1.771c0.638,1.169,1.336,2.31,2.084,3.413
		c0.374,0.553,0.746,1.106,1.153,1.632c0.392,0.539,0.797,1.066,1.224,1.573c0.411,0.523,0.853,1.012,1.293,1.501
		c0.432,0.503,0.91,0.938,1.36,1.413l-0.301-0.237c0.476,0.322,0.957,0.614,1.425,0.967c0.473,0.33,0.935,0.703,1.394,1.079
		c0.907,0.783,1.8,1.67,2.535,2.829c0.354,0.592,0.681,1.235,0.872,1.967c0.215,0.716,0.274,1.502,0.223,2.248
		c-0.044,0.758-0.248,1.446-0.473,2.099c-0.251,0.626-0.537,1.224-0.863,1.749c-0.644,1.071-1.368,1.985-2.102,2.848
		c-0.736,0.86-1.486,1.665-2.232,2.454c-1.495,1.574-2.967,3.09-4.353,4.655l0.413-0.751c-1.113,3.835-2.519,7.587-4.316,11.191
		c-0.9,1.8-1.902,3.561-3.034,5.255c-1.132,1.693-2.395,3.32-3.825,4.824c-1.431,1.501-3.034,2.88-4.826,4.027
		c-1.788,1.147-3.771,2.053-5.859,2.604c-2.087,0.557-4.267,0.753-6.396,0.625c-0.537-0.009-1.063-0.082-1.589-0.149
		c-0.524-0.057-1.054-0.135-1.593-0.259c-1.128-0.205-2.017-0.484-2.954-0.746c-1.064-0.296-1.687-1.399-1.39-2.463
		c0.296-1.064,1.398-1.686,2.463-1.39L177.655,285.287z"/>
</g>
<g>
	<path d="M169.996,294.458l-2.081,1.492c-0.787,0.476-1.675,0.923-2.516,1.37c-0.882,0.331-1.763,0.668-2.667,0.928l-1.396,0.267
		c-0.465,0.093-0.931,0.183-1.406,0.175c-0.944,0.029-1.896,0.105-2.822-0.047l-1.397-0.155l-1.349-0.319
		c-0.916-0.181-1.763-0.507-2.622-0.813c-0.877-0.274-1.661-0.701-2.487-1.06c-0.832-0.354-1.575-0.826-2.366-1.234
		c-0.792-0.411-1.509-0.906-2.267-1.356c-0.76-0.449-1.459-0.959-2.188-1.439c-0.73-0.481-1.423-0.995-2.128-1.499
		c-2.804-2.028-5.505-4.134-8.209-6.205c-0.049-0.038-0.096-0.078-0.139-0.12l-0.022-0.021c-1.027-0.993-2.106-1.91-3.242-2.608
		c-1.132-0.699-2.321-1.142-3.419-1.156c-1.095-0.023-2.141,0.357-3.113,1.131c-0.974,0.758-1.823,1.85-2.573,3.019
		c-1.514,2.355-2.613,5.12-3.563,7.915c-0.938,2.811-1.726,5.701-2.389,8.631c-0.661,2.931-1.266,5.882-1.768,8.86
		c-0.523,2.973-0.971,5.965-1.389,8.962c-0.406,3-0.783,6.006-1.117,9.019l-0.248,2.261l-0.063,0.564l-0.031,0.283l-0.019,0.222
		l-0.083,1.14c-0.143,1.557-0.133,2.936-0.145,4.403c0.023,2.944,0.324,5.896,0.766,8.825c0.439,2.934,1.091,5.844,1.875,8.721
		c0.781,2.878,1.693,5.728,2.744,8.532c1.045,2.806,2.182,5.582,3.434,8.311c2.505,5.456,5.347,10.771,8.507,15.887
		c1.578,2.56,3.23,5.073,4.962,7.521c1.739,2.43,3.552,4.851,5.486,7.002l-0.126-0.127l0.882,0.877
		c0.267,0.31,0.542,0.615,0.797,0.931c0.5,0.637,0.953,1.294,1.37,1.965c0.407,0.674,0.781,1.358,1.125,2.051
		c0.333,0.693,0.651,1.392,0.936,2.096c1.14,2.815,1.948,5.68,2.64,8.526c0.695,2.847,1.268,5.693,1.899,8.465
		c0.318,1.382,0.649,2.752,1.049,4.041c0.207,0.633,0.415,1.272,0.667,1.82c0.242,0.548,0.529,1.065,0.774,1.333l-0.124-0.125
		c0.335,0.277,0.702,0.565,1.16,0.808c0.435,0.255,0.932,0.475,1.441,0.676c1.022,0.403,2.131,0.715,3.264,0.963
		c2.27,0.497,4.649,0.729,7.017,0.796c2.367,0.047,4.753-0.078,7.019-0.483c0.563-0.105,1.117-0.228,1.656-0.369
		c0.534-0.147,1.051-0.314,1.528-0.51c0.461-0.201,0.92-0.418,1.234-0.66c0.321-0.234,0.527-0.476,0.578-0.591
		c0.078-0.176,0.18-0.335,0.3-0.474l0.051-0.058c0.19-0.219,0.357-0.517,0.49-0.894c0.139-0.373,0.2-0.852,0.254-1.332
		c0.07-0.998-0.016-2.105-0.188-3.224c-0.351-2.248-1.01-4.548-1.749-6.824c-1.502-4.568-3.392-9.072-5.205-13.676
		c-0.018-0.045-0.034-0.091-0.048-0.137l-0.019-0.064c-0.366-1.228-0.797-2.456-1.34-3.668c-0.535-1.211-1.138-2.41-1.797-3.59
		c-1.313-2.364-2.806-4.663-4.378-6.925c-1.574-2.263-3.232-4.483-4.914-6.719l-2.526-3.394l-0.627-0.875l-0.079-0.109l-0.039-0.056
		l-0.01-0.014c0.027,0.037-0.074-0.101,0.059,0.078l-0.021-0.025l-0.163-0.205l-0.326-0.412l-1.312-1.68
		c-0.871-1.142-1.725-2.318-2.517-3.555c-0.392-0.622-0.792-1.236-1.144-1.887c-0.372-0.638-0.723-1.288-1.04-1.958
		c-0.342-0.657-0.64-1.334-0.921-2.02c-0.305-0.677-0.555-1.372-0.795-2.072c-0.262-0.692-0.476-1.398-0.668-2.11
		c-0.21-0.708-0.405-1.418-0.547-2.139c-0.35-1.431-0.552-2.878-0.773-4.322c-0.14-1.448-0.318-2.896-0.35-4.343
		c-0.094-1.448-0.066-2.888-0.056-4.329c0.013-1.44,0.134-2.869,0.197-4.304c0.048-1.103,0.982-1.957,2.085-1.909
		c1.103,0.049,1.958,0.982,1.909,2.086l-0.006,0.126c-0.059,1.36-0.178,2.726-0.191,4.083c-0.009,1.357-0.04,2.718,0.049,4.064
		c0.026,1.355,0.194,2.687,0.318,4.025c0.204,1.321,0.384,2.649,0.701,3.939c0.126,0.655,0.302,1.294,0.491,1.928
		c0.172,0.641,0.362,1.274,0.596,1.891c0.214,0.625,0.435,1.247,0.707,1.848c0.249,0.61,0.513,1.214,0.818,1.799
		c0.28,0.597,0.594,1.178,0.927,1.75c0.312,0.583,0.677,1.14,1.03,1.703c0.717,1.122,1.506,2.214,2.331,3.298l1.271,1.631
		l0.326,0.411l0.163,0.206l0.219,0.3l0.594,0.831l2.485,3.345c1.681,2.24,3.371,4.506,4.992,6.841
		c1.619,2.336,3.179,4.737,4.582,7.271c0.704,1.264,1.36,2.568,1.954,3.917c0.601,1.345,1.102,2.76,1.528,4.216l-0.066-0.2
		c1.783,4.545,3.701,9.116,5.268,13.894c0.772,2.396,1.481,4.837,1.89,7.449c0.196,1.31,0.319,2.667,0.217,4.124
		c-0.078,0.737-0.174,1.488-0.451,2.276c-0.271,0.781-0.687,1.588-1.321,2.286l0.35-0.531c-0.474,1.023-1.189,1.667-1.858,2.165
		c-0.683,0.502-1.359,0.809-2.032,1.103c-0.672,0.274-1.337,0.486-1.999,0.668c-0.661,0.174-1.319,0.316-1.976,0.438
		c-2.622,0.464-5.217,0.589-7.807,0.537c-2.589-0.076-5.171-0.327-7.75-0.893c-1.29-0.284-2.578-0.642-3.863-1.149
		c-0.643-0.255-1.285-0.539-1.921-0.908c-0.637-0.344-1.269-0.803-1.875-1.332c-0.038-0.033-0.074-0.068-0.107-0.105l-0.017-0.02
		c-0.716-0.815-1.09-1.601-1.439-2.361c-0.345-0.765-0.581-1.5-0.821-2.237c-0.452-1.466-0.793-2.901-1.121-4.328
		c-0.646-2.852-1.208-5.659-1.878-8.414c-0.664-2.754-1.432-5.454-2.455-7.986c-0.255-0.633-0.535-1.246-0.824-1.853
		c-0.298-0.599-0.615-1.18-0.952-1.741c-0.345-0.553-0.71-1.082-1.099-1.581l-0.609-0.712l-0.649-0.648l-0.125-0.125l-0.002-0.002
		c-2.136-2.382-3.97-4.853-5.773-7.373c-1.783-2.525-3.474-5.105-5.09-7.73c-3.234-5.25-6.141-10.698-8.712-16.313
		c-1.284-2.809-2.455-5.672-3.531-8.573c-1.083-2.9-2.027-5.857-2.837-8.856c-0.814-2.997-1.493-6.042-1.953-9.132
		c-0.463-3.088-0.778-6.212-0.8-9.359c0.008-1.575,0.02-3.245,0.16-4.722l0.084-1.139l0.031-0.347l0.033-0.284l0.065-0.57
		l0.262-2.278c0.353-3.037,0.749-6.072,1.176-9.104c0.439-3.032,0.908-6.062,1.456-9.084c0.526-3.023,1.159-6.038,1.854-9.043
		c0.698-3.006,1.526-5.996,2.53-8.956c1.027-2.952,2.19-5.899,3.981-8.672c0.901-1.375,1.936-2.738,3.373-3.858
		c1.4-1.129,3.363-1.915,5.322-1.843c1.96,0.049,3.696,0.791,5.139,1.684c1.455,0.906,2.695,1.988,3.85,3.116l-0.161-0.141
		c2.707,2.095,5.381,4.202,8.101,6.189c0.681,0.493,1.357,1,2.051,1.461c0.694,0.461,1.369,0.969,2.077,1.393
		c0.706,0.427,1.392,0.912,2.114,1.293c0.722,0.379,1.421,0.836,2.161,1.155c0.736,0.324,1.455,0.731,2.211,0.968
		c0.748,0.273,1.492,0.574,2.257,0.725l1.139,0.286l1.146,0.133c0.766,0.145,1.525,0.071,2.286,0.063
		c0.384,0.018,0.757-0.057,1.129-0.13l1.123-0.198c0.73-0.208,1.453-0.481,2.172-0.73c0.66-0.362,1.315-0.659,1.996-1.047
		l2.096-1.472c0.692-0.487,1.648-0.319,2.135,0.373c0.483,0.688,0.321,1.637-0.36,2.126L169.996,294.458z"/>
</g>
<g>
	<path d="M177.391,302.859c0,0,0.212,1.51,0.582,4.152c0.093,0.661,0.195,1.393,0.307,2.188c0.103,0.801,0.181,1.685,0.282,2.619
		c0.194,1.873,0.414,3.985,0.653,6.291c0.198,2.286,0.413,4.764,0.64,7.384c0.234,2.619,0.453,5.38,0.654,8.236
		c0.441,5.712,0.839,11.807,1.228,17.902c0.177,3.049,0.354,6.098,0.528,9.099c0.154,3.004,0.307,5.96,0.453,8.82
		c0.15,2.858,0.263,5.631,0.342,8.267c0.023,0.658,0.046,1.308,0.067,1.947c0.012,0.319,0.022,0.637,0.033,0.951l0.009,0.235
		l0.004,0.118l-0.004,0.257l-0.005,0.058l-0.032,0.464c-0.044,0.614-0.087,1.219-0.13,1.813c-0.036,0.587-0.183,1.286-0.271,1.903
		c-0.442,2.506-1.151,4.745-2.365,6.621c-1.183,1.868-2.796,3.219-4.294,3.946c-1.503,0.743-2.817,0.951-3.711,1.023
		c-0.889,0.066-1.443-0.007-1.513-0.015c-1.095-0.147-1.863-1.153-1.717-2.248c0.147-1.095,1.153-1.863,2.248-1.717
		c-0.07-0.012,0.138,0.025,0.675-0.016c0.521-0.046,1.324-0.179,2.217-0.63c0.891-0.447,1.86-1.238,2.672-2.521
		c0.824-1.255,1.407-3.093,1.742-5.076c0.065-0.515,0.187-0.959,0.222-1.56c0.038-0.594,0.078-1.198,0.117-1.813l0.03-0.463
		l0.004-0.059c0.005-0.187-0.004,0.223-0.004,0.17l-0.001-0.029l-0.005-0.116l-0.01-0.233c-0.013-0.312-0.025-0.625-0.038-0.941
		c-0.026-0.633-0.053-1.274-0.079-1.926c-0.095-2.603-0.224-5.352-0.391-8.202c-0.164-2.849-0.334-5.791-0.506-8.782
		c-0.193-2.99-0.389-6.029-0.584-9.067c-0.426-6.075-0.86-12.148-1.336-17.835c-0.218-2.846-0.452-5.593-0.701-8.193
		c-0.242-2.6-0.471-5.057-0.682-7.326c-0.246-2.242-0.472-4.299-0.672-6.121c-0.104-0.912-0.184-1.762-0.29-2.555
		c-0.116-0.795-0.223-1.525-0.32-2.186c-0.387-2.641-0.607-4.148-0.607-4.148l-0.005-0.033c-0.185-1.26,0.687-2.431,1.946-2.615
		s2.431,0.688,2.615,1.947L177.391,302.859z"/>
</g>
<path fill="none" stroke="#000000" stroke-width="4" stroke-linecap="round" stroke-linejoin="round" stroke-miterlimit="10" d="
	M183.106,375.164c13.202,8.785,41.313,7.224,49.976,13.991c6.954,5.726,28.818,63.51,41.972,65.966
	c11.826,3.791,46.185,2.229,27.997,23.996"/>
<path fill="none" stroke="#000000" stroke-width="4" stroke-linecap="round" stroke-linejoin="round" stroke-miterlimit="10" d="
	M275.054,455.121c0,0-2.229,10.038-7.988,17.993"/>
<path fill="none" stroke="#000000" stroke-width="4" stroke-linecap="round" stroke-linejoin="round" stroke-miterlimit="10" d="
	M263.072,483.118c15.999-5.466,49.479-10.761,29.974,23.979c-7.728,14.283-21.979,9.997-21.979,9.997
	c-7.613,1.163-10.736,7.409-15.991,5.994c-7.239-1.708-22.856-14.202-11.997-19.985
	C248.585,499.533,263.454,490.146,263.072,483.118c0.382-5.466-7.418-13.274-21.994-41.987
	c-13.535-27.509-27.599-32.194-47.975-33.983"/>
<path fill="none" stroke="#000000" stroke-width="4" stroke-linecap="round" stroke-linejoin="round" stroke-miterlimit="10" d="
	M237.084,503.103c-4.864-11.396-22.035-55.124-37.978-59.972"/>
<g>
	<path d="M182.205,336.437c0,0,0.467,0.635,1.284,1.746c0.415,0.541,0.892,1.258,1.442,2.075c0.56,0.816,1.171,1.74,1.797,2.752
		c1.297,2.014,2.712,4.407,4.201,6.983c1.488,2.576,3.023,5.345,4.544,8.115c3.038,5.535,6.001,11.109,8.359,15.091
		c0.589,0.994,1.129,1.902,1.629,2.66c0.487,0.794,0.93,1.403,1.291,1.902c0.364,0.55,0.631,0.784,0.812,1.011
		c0.179,0.211,0.273,0.323,0.273,0.323l0.268,0.317c1.085,1.284,0.924,3.205-0.36,4.29s-3.205,0.924-4.29-0.36
		c-0.028-0.033-0.062-0.075-0.088-0.108c0,0-0.15-0.195-0.432-0.562c-0.268-0.361-0.733-0.931-1.091-1.559
		c-0.405-0.646-0.889-1.431-1.349-2.308c-0.497-0.884-0.998-1.874-1.542-2.953c-2.17-4.314-4.736-10.066-7.381-15.776
		c-1.321-2.853-2.651-5.694-3.942-8.329c-1.292-2.635-2.521-5.081-3.647-7.123c-0.549-1.039-1.071-1.96-1.545-2.762
		c-0.467-0.81-0.868-1.518-1.254-2.1c-0.739-1.164-1.161-1.829-1.161-1.829c-0.395-0.616-0.214-1.436,0.402-1.829
		C181.015,335.729,181.794,335.884,182.205,336.437z"/>
</g>
<g>
	<path d="M97.149,277.304L83.994,9.488l5.618,1.851l-0.002,0.003l-3.353,3.709l-1.675,1.851l-1.747,1.779L79.34,22.23l-3.622,3.408
		l-1.813,1.698l-1.867,1.636c-1.249,1.085-2.478,2.191-3.741,3.256l-3.828,3.146c-1.261,1.065-2.593,2.042-3.888,3.062
		c-1.301,1.013-2.602,2.024-3.941,2.985c-1.333,0.968-2.645,1.964-3.995,2.906l-4.049,2.824l-4.109,2.732l-4.156,2.653l-4.21,2.564
		c-2.83,1.677-5.673,3.301-8.607,4.827l-0.087-1.253l0.001,0c1.239,0.314,2.447,0.687,3.693,0.952
		c1.265,0.218,2.518,0.464,3.782,0.66l3.827,0.457c1.28,0.124,2.569,0.206,3.851,0.311c1.279,0.118,2.574,0.149,3.861,0.214
		c1.288,0.061,2.574,0.125,3.867,0.14l3.871,0.078l3.876,0.007c1.29,0.012,2.584-0.025,3.876-0.038
		c1.292-0.017,2.583-0.034,3.876-0.077c2.584-0.06,5.168-0.159,7.751-0.264c2.583-0.118,5.165-0.248,7.745-0.401
		c2.573-0.16,5.17-0.326,7.708-0.535l0.01-0.001c1.734-0.143,3.255,1.147,3.398,2.881c0.143,1.734-1.147,3.255-2.881,3.398
		c-0.081,0.007-0.168,0.01-0.249,0.011c-2.652,0.008-5.25-0.031-7.871-0.075c-2.615-0.05-5.229-0.125-7.841-0.211
		c-2.613-0.1-5.224-0.206-7.835-0.351c-1.305-0.06-2.61-0.146-3.915-0.231c-1.305-0.09-2.609-0.155-3.914-0.271l-3.911-0.315
		l-3.908-0.388c-1.302-0.118-2.603-0.287-3.903-0.451c-1.3-0.17-2.6-0.304-3.896-0.527c-1.297-0.209-2.593-0.395-3.886-0.624
		l-3.869-0.774c-1.284-0.303-2.56-0.659-3.834-0.985c-1.269-0.376-2.517-0.868-3.766-1.296l-0.001,0
		c-0.353-0.098-0.559-0.464-0.461-0.817c0.047-0.169,0.156-0.305,0.295-0.389l0.078-0.047c2.771-1.671,5.504-3.468,8.191-5.3
		l4.003-2.798l3.941-2.881l3.885-2.953l3.817-3.036c1.271-1.012,2.501-2.075,3.752-3.109c1.257-1.027,2.473-2.103,3.688-3.178
		c1.209-1.082,2.455-2.121,3.625-3.244l3.552-3.315c1.169-1.119,2.301-2.276,3.453-3.412l1.72-1.709l1.66-1.765l3.31-3.532
		l3.167-3.65l1.58-1.825l1.5-1.887l2.998-3.767l0.002-0.003l0.066-0.077c1.135-1.324,3.129-1.476,4.453-0.341
		c0.69,0.592,1.062,1.428,1.099,2.269l10.831,267.92c0.044,1.104-0.814,2.035-1.917,2.079
		C98.13,279.249,97.204,278.398,97.149,277.304z"/>
</g>
<g>
	<path d="M106.275,242.828l-2.317-1.265c-0.771-0.407-1.548-0.874-2.314-1.233l-2.3-1.097c-0.757-0.384-1.543-0.712-2.339-1.021
		c-0.792-0.313-1.578-0.654-2.375-0.945l-2.413-0.782c-0.799-0.292-1.624-0.411-2.434-0.627c-0.407-0.088-0.812-0.212-1.22-0.273
		l-1.225-0.173l-1.225-0.175l-1.218-0.046c-0.405-0.011-0.813-0.045-1.216-0.04l-1.197,0.089c-0.809,0.012-1.571,0.216-2.348,0.354
		c-0.396,0.05-0.756,0.206-1.13,0.32c-0.367,0.131-0.753,0.219-1.107,0.38c-0.7,0.341-1.429,0.625-2.074,1.076
		c-0.686,0.376-1.286,0.897-1.914,1.374c-0.579,0.549-1.188,1.061-1.711,1.688c-0.558,0.583-1.05,1.25-1.56,1.894l0.177-0.295
		l-0.25,0.608l-0.17,0.622c-0.075,0.42-0.124,0.843-0.101,1.274c0.022,0.43,0.08,0.866,0.211,1.3
		c0.052,0.218,0.124,0.435,0.216,0.649c0.074,0.217,0.177,0.43,0.285,0.642c0.422,0.849,1.01,1.659,1.699,2.399
		c0.343,0.371,0.713,0.727,1.107,1.058c0.388,0.337,0.799,0.655,1.229,0.946c1.708,1.178,3.666,2.06,5.664,2.468
		c0.997,0.203,2.001,0.289,2.965,0.224c0.481-0.034,0.949-0.108,1.403-0.212c0.225-0.057,0.439-0.134,0.661-0.195l0.627-0.256
		l-0.299,0.178c0.829-0.566,1.702-1.062,2.616-1.37c0.907-0.338,1.836-0.546,2.763-0.668c0.927-0.114,1.855-0.161,2.771-0.101
		c0.919,0.037,1.823,0.179,2.718,0.359c0.889,0.203,1.765,0.46,2.614,0.794c0.847,0.339,1.678,0.727,2.462,1.204
		c0.396,0.23,0.785,0.475,1.154,0.753c0.382,0.258,0.741,0.548,1.089,0.853c0.708,0.594,1.352,1.271,1.938,1.993
		c0.586,0.724,1.095,1.511,1.537,2.333c0.432,0.827,0.785,1.692,1.06,2.579c0.262,0.889,0.461,1.793,0.565,2.704
		c0.08,0.455,0.082,0.909,0.109,1.363c0.034,0.456,0.032,0.908,0.006,1.357c-0.005,0.907-0.14,1.787-0.249,2.672
		c-0.179,0.863-0.322,1.742-0.583,2.575c-0.214,0.853-0.511,1.666-0.805,2.482c-0.29,0.817-0.662,1.589-0.991,2.385
		c-0.019,0.047-0.046,0.099-0.073,0.141l-1.078,1.699c-0.359,0.568-0.782,1.066-1.17,1.602c-0.387,0.539-0.812,1.032-1.238,1.523
		c-0.428,0.49-0.838,1.002-1.292,1.459l-1.333,1.407l-1.379,1.345c-0.454,0.456-0.935,0.875-1.407,1.307
		c-0.474,0.428-0.943,0.865-1.432,1.272c-0.962,0.837-1.944,1.647-2.937,2.442c-0.997,0.788-1.998,1.571-3.019,2.322
		c-1.017,0.76-2.047,1.499-3.084,2.231c-1.044,0.734-2.073,1.438-3.18,2.149l-0.008,0.006c-0.903,0.592-2.116,0.341-2.708-0.563
		c-0.106-0.162-0.186-0.334-0.239-0.51l-0.057-0.195l-0.815-2.758c-0.305-0.903-0.695-1.767-1.031-2.651
		c-0.362-0.872-0.843-1.676-1.251-2.518c-0.452-0.815-1.009-1.558-1.5-2.341c-0.563-0.728-1.169-1.42-1.755-2.124
		c-0.68-0.613-1.302-1.286-2.013-1.858c-1.435-1.13-2.968-2.134-4.642-2.909c-0.835-0.389-1.66-0.797-2.559-1.064l-1.316-0.459
		c-0.444-0.141-0.909-0.231-1.362-0.351l-1.366-0.341c-0.462-0.093-0.935-0.155-1.401-0.235L58.79,277.8
		c-0.47-0.066-0.952-0.088-1.426-0.135c-0.953-0.083-1.901-0.186-2.87-0.176c-0.965,0-1.921-0.08-2.894-0.011
		c-0.97,0.047-1.938,0.061-2.908,0.133l-2.914,0.274l-1.568,0.147l-0.752,0.073l-0.636,0.112c-0.831,0.108-1.737,0.333-2.628,0.538
		c-1.771,0.483-3.5,1.144-5.165,1.955c-3.331,1.624-6.366,3.916-8.92,6.597c-1.273,1.345-2.401,2.813-3.337,4.347
		c-0.928,1.531-1.675,3.159-2.015,4.726c-0.357,1.565-0.292,3.029,0.234,3.966c0.467,0.955,1.489,1.659,2.965,2.109l-0.318-0.07
		c2.801,0.438,5.657,0.903,8.21,0.928c1.292,0.03,2.433-0.087,3.413-0.404c0.983-0.307,1.934-0.871,2.991-1.659
		c1.051-0.782,2.138-1.696,3.265-2.632l1.702-1.4l0.106-0.087l0.054-0.044l0.21-0.161l0.223-0.156l0.445-0.312
		c0.32-0.213,0.542-0.405,0.943-0.636c0.794-0.448,1.61-0.948,2.406-1.238c0.404-0.159,0.793-0.35,1.213-0.474l1.263-0.36
		c1.703-0.39,3.487-0.585,5.223-0.385c3.513,0.271,6.672,1.781,9.339,3.625c0.682,0.456,1.281,0.992,1.921,1.488
		c0.598,0.532,1.179,1.081,1.755,1.631c0.536,0.58,1.087,1.151,1.605,1.743l0.741,0.912l0.37,0.456l0.185,0.228l0.046,0.058
		l0.023,0.028l0.108,0.147l0.076,0.113l0.606,0.903l0.303,0.451c0.102,0.153,0.209,0.378,0.312,0.563l0.615,1.175l0.299,0.591
		l0.224,0.549c0.633,1.467,1.103,2.936,1.56,4.402c0.839,2.936,1.43,5.867,1.945,8.798c0.461,2.93,0.877,5.857,1.163,8.783
		c0.316,2.926,0.538,5.85,0.741,8.772c0.179,2.922,0.334,5.843,0.435,8.762c0.109,2.92,0.186,5.837,0.211,8.754
		c0.065,5.834,0.004,11.661-0.129,17.484c-0.134,5.828-0.361,11.632-0.724,17.471c-0.064,1.036-0.957,1.824-1.994,1.761
		c-1.015-0.063-1.792-0.92-1.764-1.93l0-0.021c0.168-5.755,0.225-11.555,0.238-17.332c-0.004-5.781-0.08-11.562-0.279-17.331
		c-0.194-5.769-0.457-11.53-0.912-17.263c-0.242-2.863-0.5-5.724-0.85-8.563c-0.32-2.847-0.765-5.659-1.246-8.455
		c-0.53-2.777-1.131-5.53-1.927-8.167l-0.655-1.931c-0.212-0.648-0.501-1.228-0.745-1.847l-0.188-0.457l-0.199-0.377l-0.384-0.758
		c-0.071-0.132-0.105-0.245-0.205-0.394l-0.306-0.45l-0.611-0.9l-1.182-1.445c-0.44-0.496-0.903-0.965-1.35-1.451l-1.439-1.322
		c-0.513-0.383-0.996-0.822-1.525-1.166c-2.085-1.419-4.379-2.466-6.689-2.609c-1.153-0.139-2.295,0.018-3.409,0.268
		c-1.108,0.26-2.224,0.806-3.102,1.305c-0.234,0.12-0.575,0.395-0.857,0.585l-0.443,0.314l-0.222,0.157
		c-0.149,0.112,0.172-0.131,0.129-0.098l-0.026,0.021l-0.051,0.043l-0.103,0.085l-1.652,1.375c-1.1,0.922-2.227,1.888-3.497,2.846
		c-1.257,0.948-2.806,1.94-4.598,2.513c-1.784,0.585-3.578,0.727-5.18,0.702c-3.256-0.029-6.151-0.52-9.081-0.952l-0.086-0.013
		c-0.078-0.012-0.16-0.032-0.232-0.058c-0.612-0.216-1.221-0.387-1.828-0.667c-0.606-0.311-1.217-0.573-1.789-1.021
		c-1.175-0.771-2.198-1.954-2.885-3.252c-0.729-1.314-0.976-2.745-1.078-4.084c-0.063-1.344,0.095-2.616,0.373-3.807
		c0.552-2.394,1.566-4.481,2.74-6.404c1.186-1.917,2.56-3.667,4.081-5.256c3.05-3.165,6.605-5.808,10.573-7.718
		c1.982-0.952,4.058-1.731,6.203-2.299c1.084-0.245,2.147-0.505,3.329-0.651l0.866-0.121l0.762-0.057l1.461-0.105l3.144-0.229
		c1.051-0.056,2.111-0.052,3.166-0.079c1.052-0.049,2.122,0.053,3.182,0.079c1.06,0.015,2.126,0.147,3.19,0.263
		c0.532,0.064,1.064,0.102,1.595,0.188l1.592,0.291c0.53,0.102,1.062,0.186,1.589,0.304l1.575,0.425
		c0.523,0.149,1.052,0.269,1.57,0.444l1.543,0.57c1.04,0.343,2.029,0.843,3.019,1.334c1.983,0.976,3.813,2.279,5.508,3.718
		c0.839,0.728,1.582,1.567,2.368,2.349c0.688,0.869,1.386,1.734,2.026,2.632c0.562,0.946,1.184,1.862,1.681,2.834
		c0.45,0.992,0.969,1.96,1.35,2.972c0.346,1.023,0.735,2.035,1.03,3.065l0.761,3.113l-3.003-1.267l0.007-0.004
		c1.006-0.616,2.053-1.297,3.063-1.978c1.02-0.681,2.026-1.384,3.013-2.112c0.995-0.718,1.967-1.464,2.934-2.215
		c0.963-0.756,1.913-1.526,2.84-2.318c0.474-0.387,0.921-0.797,1.376-1.201c0.453-0.406,0.917-0.803,1.346-1.228l1.313-1.256
		l1.247-1.305c0.428-0.428,0.796-0.893,1.19-1.342c0.392-0.451,0.783-0.901,1.123-1.378c0.343-0.474,0.733-0.929,1.039-1.417
		l0.931-1.458l-0.073,0.14c0.29-0.709,0.631-1.406,0.884-2.124c0.258-0.717,0.522-1.433,0.704-2.162
		c0.23-0.723,0.342-1.457,0.5-2.186c0.085-0.73,0.205-1.463,0.204-2.188c0.024-0.365,0.027-0.726-0.003-1.083
		c-0.022-0.357-0.017-0.721-0.083-1.069c-0.079-0.709-0.233-1.398-0.428-2.071c-0.208-0.669-0.472-1.315-0.792-1.932
		c-0.33-0.611-0.706-1.198-1.145-1.74c-0.439-0.54-0.92-1.052-1.46-1.503c-0.264-0.232-0.536-0.455-0.832-0.652
		c-0.281-0.215-0.582-0.403-0.89-0.582c-0.605-0.372-1.256-0.673-1.919-0.941c-0.666-0.263-1.355-0.465-2.053-0.626
		c-0.702-0.139-1.41-0.254-2.119-0.281c-0.709-0.05-1.414-0.009-2.102,0.073c-0.687,0.089-1.356,0.24-1.975,0.473
		c-0.637,0.207-1.182,0.541-1.703,0.879l-0.166,0.107c-0.042,0.027-0.089,0.052-0.133,0.071c-0.327,0.137-0.654,0.278-0.984,0.402
		c-0.335,0.101-0.67,0.213-1.007,0.297c-0.677,0.159-1.358,0.262-2.035,0.309c-1.354,0.089-2.681-0.033-3.957-0.294
		c-0.637-0.135-1.262-0.303-1.877-0.496c-0.61-0.206-1.212-0.43-1.798-0.687c-1.171-0.516-2.29-1.142-3.343-1.872
		c-0.529-0.36-1.038-0.754-1.526-1.177c-0.493-0.416-0.962-0.867-1.406-1.347c-0.889-0.958-1.686-2.04-2.298-3.269
		c-0.154-0.307-0.301-0.618-0.419-0.949c-0.133-0.321-0.244-0.655-0.332-1.001c-0.199-0.678-0.305-1.4-0.338-2.127
		c-0.035-0.729,0.039-1.465,0.179-2.185c0.081-0.356,0.19-0.705,0.291-1.056l0.412-1.001c0.04-0.097,0.092-0.186,0.154-0.265
		l0.024-0.03c0.58-0.737,1.138-1.486,1.797-2.179c0.611-0.722,1.346-1.359,2.049-2.012c0.768-0.594,1.51-1.22,2.369-1.702
		c0.811-0.553,1.722-0.929,2.609-1.345c0.447-0.199,0.924-0.319,1.386-0.48c0.467-0.143,0.927-0.326,1.407-0.395
		c0.953-0.179,1.906-0.41,2.864-0.434l1.437-0.101c0.476-0.006,0.948,0.029,1.421,0.043l1.42,0.06l1.389,0.195l1.388,0.201
		c0.461,0.071,0.903,0.203,1.355,0.302c0.89,0.234,1.818,0.381,2.676,0.692l2.609,0.849c0.855,0.313,1.686,0.673,2.53,1.008
		c0.845,0.331,1.682,0.681,2.496,1.093l2.463,1.182c0.826,0.392,1.559,0.836,2.343,1.251l2.316,1.267
		c0.88,0.479,1.206,1.582,0.727,2.462S107.155,243.307,106.275,242.828z"/>
</g>
<g>
	<path d="M157.12,441.033c0.061,1.76,0.138,3.526,0.143,5.363l-0.034,1.411c-0.046,0.498-0.051,0.966-0.137,1.486
		c-0.07,0.512-0.163,1.03-0.331,1.571c-0.131,0.527-0.385,1.069-0.63,1.565l-0.425,0.725c-0.151,0.227-0.314,0.431-0.473,0.645
		c-0.316,0.445-0.66,0.764-0.991,1.148c-0.672,0.683-1.343,1.308-2.01,1.909l-3.917,3.541l-0.1,0.086l-0.047,0.037
		c-0.712,0.571-1.362,1.268-1.885,2.115c-0.501,0.861-0.948,1.795-1.243,2.818c-0.631,2.024-0.92,4.232-0.948,6.455
		c-0.035,2.226,0.184,4.473,0.58,6.682c0.401,2.21,0.994,4.388,1.798,6.464c0.808,2.064,1.813,4.068,3.142,5.712
		c1.299,1.652,2.965,2.942,4.709,3.129c0.219,0.006,0.435,0.068,0.655,0.041l0.66-0.06c0.22-0.036,0.439-0.119,0.66-0.171
		l0.166-0.043l0.083-0.021l0.042-0.011c0.035-0.012-0.233,0.096-0.108,0.045l0.025-0.012l0.398-0.187
		c0.261-0.125,0.541-0.247,0.785-0.373l0.614-0.384c0.406-0.215,0.849-0.601,1.275-0.897c1.698-1.326,3.22-2.991,4.597-4.768
		c2.741-3.581,5.006-7.597,6.845-11.786c0.938-2.089,1.746-4.237,2.449-6.415c0.721-2.174,1.317-4.386,1.805-6.616
		c0.505-2.227,0.856-4.481,1.092-6.738c0.254-2.256,0.31-4.521,0.206-6.761c-0.172-4.479-1.187-8.886-3.219-12.658l-0.016-0.029
		c-0.524-0.972-0.16-2.186,0.813-2.709c0.972-0.524,2.186-0.16,2.709,0.812c0.004,0.009,0.014,0.025,0.018,0.034
		c1.167,2.267,1.974,4.669,2.509,7.096c0.545,2.429,0.799,4.889,0.839,7.329c0.098,4.885-0.517,9.706-1.614,14.381
		c-1.089,4.681-2.661,9.225-4.62,13.596c-1.948,4.376-4.329,8.578-7.303,12.428c-1.502,1.912-3.166,3.738-5.169,5.293
		c-0.534,0.373-0.979,0.766-1.604,1.113l-0.89,0.524l-0.803,0.378l-0.398,0.184l-0.184,0.076l-0.064,0.019l-0.129,0.035
		l-0.259,0.071c-0.347,0.087-0.687,0.197-1.042,0.254l-1.09,0.096c-0.363,0.031-0.73-0.036-1.096-0.058
		c-1.448-0.179-2.833-0.735-3.943-1.528c-1.104-0.795-2.089-1.71-2.868-2.727c-1.626-2.005-2.743-4.246-3.654-6.527
		c-1.778-4.585-2.667-9.425-2.681-14.343c-0.002-2.458,0.267-4.953,0.991-7.416c0.341-1.232,0.876-2.446,1.542-3.611
		c0.692-1.161,1.617-2.233,2.735-3.128l-0.147,0.123l3.873-3.617c0.627-0.596,1.229-1.19,1.779-1.778
		c0.232-0.293,0.534-0.586,0.713-0.872c0.098-0.145,0.21-0.285,0.3-0.428l0.23-0.424c0.091-0.137,0.116-0.293,0.181-0.436
		c0.063-0.141,0.116-0.29,0.145-0.456c0.09-0.306,0.143-0.656,0.182-1.021c0.054-0.35,0.045-0.769,0.074-1.148l-0.004-1.233
		c-0.049-1.688-0.171-3.443-0.279-5.206c-0.07-1.103,0.768-2.053,1.87-2.123c1.103-0.069,2.053,0.768,2.122,1.87
		C157.118,440.991,157.119,441.018,157.12,441.033z"/>
</g>
<g>
	<path d="M127.078,394.578c0,0-0.462-0.125-1.358-0.368c-0.89-0.229-2.245-0.649-3.919-0.981c-3.353-0.756-8.473-1.7-15-2.062
		c-6.529-0.333-14.537-0.191-23.513,1.451c-4.476,0.844-9.193,1.997-14.029,3.638c-4.835,1.638-9.76,3.816-14.635,6.549
		c-9.742,5.449-19.217,13.408-26.625,23.871c-7.405,10.421-12.822,23.215-15.267,37.051c-2.462,13.855-3.041,28.697-0.187,43.159
		c1.423,7.219,3.711,14.318,6.972,20.975c3.291,6.638,7.597,12.783,12.748,18.122c5.148,5.345,11.146,9.86,17.654,13.422
		c6.513,3.561,13.51,6.191,20.662,8.005c7.157,1.817,14.462,2.84,21.717,3.323l2.72,0.163c0.904,0.066,1.809,0.106,2.715,0.103
		c1.811,0.021,3.615,0.044,5.412,0.066c1.799-0.02,3.592-0.108,5.378-0.158c0.865-0.03,1.728-0.062,2.59-0.092
		c0.898-0.084,1.794-0.167,2.688-0.25c0.895-0.083,1.787-0.166,2.677-0.249c0.875-0.104,1.702-0.267,2.553-0.395
		c1.689-0.271,3.373-0.507,5.045-0.94c1.669-0.399,3.354-0.713,4.967-1.254c1.618-0.517,3.271-0.907,4.827-1.55
		c6.335-2.259,12.23-5.288,17.547-8.864c10.687-7.133,18.915-16.45,24.885-25.938c6.033-9.502,9.748-19.271,11.972-28.118
		c2.13-8.886,2.808-16.888,2.559-23.41c-0.111-1.628-0.118-3.179-0.298-4.619c-0.182-1.439-0.274-2.802-0.497-4.046
		c-0.218-1.245-0.42-2.397-0.605-3.452c-0.251-1.04-0.48-1.984-0.685-2.829c-0.103-0.423-0.199-0.821-0.29-1.194
		c-0.114-0.365-0.222-0.706-0.321-1.022c-0.199-0.631-0.367-1.162-0.503-1.59c-0.27-0.855-0.408-1.298-0.408-1.298l-0.043-0.134
		c-0.332-1.053,0.253-2.176,1.306-2.508c1.049-0.33,2.167,0.25,2.503,1.296c0,0,0.151,0.471,0.445,1.384
		c0.146,0.456,0.327,1.023,0.543,1.697c0.107,0.337,0.223,0.701,0.346,1.091c0.099,0.396,0.203,0.82,0.314,1.27
		c0.222,0.899,0.468,1.903,0.739,3.009c0.201,1.119,0.421,2.34,0.657,3.659c0.239,1.318,0.347,2.754,0.542,4.276
		c0.193,1.523,0.212,3.153,0.333,4.87c0.285,6.87-0.393,15.25-2.584,24.54c-2.287,9.249-6.122,19.449-12.391,29.409
		c-6.206,9.941-14.792,19.76-26.042,27.328c-5.604,3.781-11.831,6.992-18.52,9.387c-1.645,0.678-3.386,1.099-5.095,1.645
		c-1.705,0.569-3.479,0.907-5.24,1.329c-1.748,0.454-3.577,0.721-5.404,1.012c-0.91,0.139-1.837,0.313-2.738,0.42
		c-0.89,0.084-1.783,0.168-2.677,0.252s-1.79,0.169-2.688,0.254l-0.168,0.016l-0.256,0.013l-0.343,0.012l-0.686,0.024l-1.374,0.047
		c-1.833,0.054-3.673,0.146-5.521,0.169c-1.851-0.021-3.708-0.041-5.571-0.062c-0.932,0.006-1.865-0.035-2.799-0.101l-2.808-0.165
		c-7.493-0.489-15.072-1.538-22.548-3.426c-7.47-1.885-14.831-4.635-21.726-8.392c-6.89-3.756-13.283-8.55-18.774-14.237
		c-5.497-5.68-10.092-12.228-13.59-19.265c-3.47-7.056-5.89-14.548-7.394-22.122c-3.009-15.195-2.416-30.544,0.119-44.93
		c2.542-14.462,8.185-27.898,16.014-38.95c7.823-11.083,17.87-19.544,28.153-25.311c10.296-5.829,20.776-9.055,30.175-10.731
		c9.43-1.662,17.827-1.793,24.666-1.273c6.866,0.484,12.129,1.625,15.743,2.581c1.837,0.438,3.101,0.881,4,1.145
		c0.887,0.272,1.345,0.413,1.345,0.413c1.056,0.324,1.649,1.442,1.325,2.499C129.197,394.268,128.114,394.858,127.078,394.578z"/>
</g>
<g>
	<path d="M99.152,488.976c0.255-0.015,0.51-0.03,0.762-0.076c0.332-0.06,0.521-0.153,0.784-0.221
		c0.237-0.057,0.509-0.182,0.763-0.274c0.263-0.088,0.506-0.214,0.748-0.336c0.248-0.11,0.48-0.244,0.701-0.391
		c0.23-0.132,0.447-0.277,0.646-0.442c0.21-0.15,0.409-0.31,0.583-0.489c0.189-0.164,0.363-0.339,0.513-0.529
		c0.168-0.176,0.312-0.365,0.436-0.563c0.146-0.183,0.247-0.391,0.344-0.592c0.117-0.193,0.177-0.406,0.252-0.606
		c0.093-0.194,0.107-0.41,0.164-0.606c0.062-0.195,0.042-0.407,0.078-0.6c0.019-0.196-0.013-0.398-0.004-0.588l-0.082-0.576
		c-0.056-0.192-0.113-0.381-0.155-0.566l-0.007-1.004c-0.024-0.223-0.041-0.439-0.046-0.653l-0.107-0.608l-0.171-0.56
		c-0.081-0.173-0.162-0.34-0.229-0.509c-0.104-0.152-0.178-0.313-0.27-0.463c-0.119-0.137-0.2-0.289-0.319-0.418
		c-0.135-0.12-0.222-0.266-0.367-0.373c-0.147-0.105-0.25-0.239-0.406-0.335c-0.15-0.1-0.267-0.228-0.439-0.307
		c-0.16-0.089-0.301-0.198-0.484-0.264c-0.331-0.17-0.703-0.285-1.084-0.398c-0.195-0.049-0.376-0.127-0.589-0.148
		c-0.209-0.025-0.399-0.099-0.622-0.1c-0.217-0.009-0.425-0.05-0.648-0.048l-0.67,0.002l-0.304-0.002
		c-0.244,0.002-0.496-0.003-0.771,0.057c-0.138,0.045-0.278,0.041-0.424,0.112c-0.145,0.055-0.295,0.089-0.445,0.177
		c-0.15,0.07-0.308,0.135-0.466,0.229c-0.162,0.075-0.322,0.168-0.479,0.283c-0.164,0.096-0.321,0.214-0.476,0.346
		c-0.162,0.116-0.314,0.255-0.462,0.404c-0.156,0.137-0.302,0.291-0.451,0.448c-0.157,0.149-0.302,0.313-0.438,0.489
		c-0.29,0.334-0.547,0.711-0.78,1.104c-0.109,0.2-0.254,0.387-0.35,0.599c-0.1,0.209-0.234,0.408-0.315,0.629
		c-0.201,0.429-0.351,0.878-0.505,1.336l-0.009-1.148l0.044,0.679l0.101,0.688c0.093,0.46,0.211,0.925,0.372,1.385
		c0.07,0.234,0.181,0.452,0.268,0.685c0.085,0.234,0.216,0.442,0.321,0.671c0.102,0.23,0.249,0.43,0.371,0.651
		c0.119,0.226,0.284,0.411,0.428,0.618c0.141,0.213,0.315,0.388,0.476,0.583c0.157,0.202,0.343,0.363,0.518,0.545
		c0.171,0.188,0.369,0.332,0.556,0.5c0.185,0.175,0.393,0.296,0.591,0.448c0.197,0.159,0.415,0.254,0.623,0.39
		c0.209,0.135,0.432,0.211,0.649,0.326c0.22,0.104,0.446,0.163,0.671,0.254L99.152,488.976z M98.969,492.988
		c-0.391-0.047-0.786-0.083-1.171-0.15c-0.377-0.09-0.765-0.159-1.13-0.276c-0.36-0.128-0.737-0.229-1.08-0.388
		c-0.341-0.16-0.704-0.292-1.024-0.484c-0.324-0.186-0.665-0.352-0.965-0.567c-0.305-0.209-0.625-0.403-0.905-0.64
		c-0.286-0.231-0.584-0.449-0.845-0.705c-0.265-0.251-0.545-0.489-0.785-0.763c-0.244-0.27-0.506-0.525-0.724-0.815
		c-0.222-0.287-0.466-0.558-0.663-0.863c-0.2-0.303-0.423-0.59-0.599-0.907c-0.178-0.316-0.377-0.621-0.534-0.949
		c-0.333-0.646-0.615-1.319-0.858-2.009l-0.316-1.053l-0.234-1.079c-0.046-0.21-0.048-0.419-0.013-0.618l0.008-0.038
		c0.132-0.723,0.283-1.44,0.503-2.142c0.091-0.356,0.241-0.693,0.361-1.04c0.117-0.349,0.283-0.678,0.434-1.013
		c0.311-0.666,0.666-1.315,1.083-1.927c0.197-0.313,0.413-0.614,0.649-0.903c0.224-0.297,0.46-0.584,0.722-0.854
		c0.249-0.279,0.509-0.549,0.795-0.799c0.272-0.261,0.559-0.508,0.869-0.734c0.295-0.24,0.61-0.459,0.943-0.658
		c0.319-0.216,0.664-0.398,1.017-0.569c0.342-0.188,0.717-0.324,1.088-0.465c0.364-0.155,0.765-0.233,1.152-0.34
		c0.786-0.187,1.608-0.25,2.431-0.237L99.039,469l1.176,0.018c0.392,0.012,0.787,0.074,1.179,0.112
		c0.394,0.028,0.784,0.143,1.175,0.214c0.393,0.067,0.776,0.207,1.161,0.324c0.388,0.106,0.76,0.278,1.134,0.438
		c0.379,0.147,0.734,0.357,1.093,0.559c0.365,0.188,0.696,0.439,1.034,0.679c0.347,0.228,0.645,0.524,0.958,0.799
		c0.323,0.266,0.578,0.606,0.864,0.913c0.283,0.31,0.502,0.676,0.75,1.016c0.233,0.351,0.416,0.734,0.62,1.104
		c0.175,0.383,0.322,0.781,0.476,1.173c0.114,0.405,0.226,0.812,0.322,1.221c0.061,0.412,0.129,0.827,0.171,1.241
		c0.013,0.413,0.032,0.828,0.028,1.24l-0.104,1.224l-0.004-0.582c0.042,0.413,0.085,0.827,0.112,1.242
		c-0.012,0.419-0.012,0.84-0.048,1.257c-0.067,0.415-0.108,0.837-0.212,1.244c-0.122,0.401-0.203,0.82-0.373,1.203
		c-0.165,0.384-0.303,0.784-0.521,1.139c-0.202,0.364-0.4,0.731-0.652,1.057c-0.236,0.34-0.482,0.669-0.765,0.963
		c-0.266,0.312-0.551,0.601-0.859,0.861c-0.293,0.281-0.607,0.53-0.935,0.759c-0.317,0.246-0.652,0.46-0.996,0.654
		c-0.337,0.213-0.686,0.394-1.044,0.553c-0.353,0.177-0.711,0.331-1.08,0.455c-0.365,0.137-0.731,0.271-1.107,0.359
		c-0.378,0.096-0.731,0.212-1.146,0.272c-0.386,0.063-0.842,0.156-1.172,0.185l-0.996,0.089l-0.079,0.007
		C99.122,492.998,99.042,492.996,98.969,492.988z"/>
</g>
<path fill="none" stroke="#000000" stroke-width="4" stroke-linecap="round" stroke-linejoin="round" stroke-miterlimit="10" d="
	M93.149,477.116"/>
<g>
	<path d="M150.472,449.366c0,0-0.14-0.337-0.41-0.989c-0.278-0.646-0.654-1.637-1.213-2.87c-1.166-2.379-2.999-5.879-6.034-9.798
		c-0.794-0.95-1.56-2.004-2.531-2.967c-0.467-0.495-0.944-1.002-1.433-1.52c-0.523-0.482-1.057-0.975-1.603-1.478
		c-1.056-1.039-2.321-1.936-3.554-2.941c-0.645-0.469-1.327-0.914-2.003-1.384c-0.342-0.229-0.678-0.474-1.032-0.697
		c-0.362-0.213-0.726-0.427-1.094-0.643c-0.744-0.417-1.457-0.904-2.252-1.281c-0.784-0.394-1.579-0.793-2.385-1.197
		c-1.658-0.721-3.356-1.459-5.16-2.07c-3.576-1.285-7.467-2.275-11.592-2.852c-8.245-1.141-17.449-0.574-26.495,2.215
		c-4.523,1.382-8.971,3.365-13.228,5.84c-4.259,2.472-8.291,5.524-11.908,9.111c-0.909,0.868-1.907,1.921-2.863,2.879
		c-0.915,0.97-1.635,1.89-2.473,2.832c-0.794,0.986-1.564,2.051-2.355,3.074c-0.721,1.082-1.443,2.167-2.168,3.256
		c-2.786,4.434-5.038,9.29-6.701,14.395c-3.331,10.206-4.311,21.402-2.81,32.185c0.767,5.382,2.11,10.687,4.203,15.612
		c2.087,4.92,4.821,9.503,8.193,13.417c3.386,3.898,7.373,7.125,11.813,9.444l1.872,0.965c0.623,0.321,1.257,0.658,1.816,0.895
		c1.164,0.516,2.268,1.067,3.515,1.537c1.211,0.495,2.423,0.98,3.663,1.391l1.842,0.646l1.865,0.564
		c9.934,2.996,20.087,4.333,29.596,3.928c4.751-0.203,9.354-0.789,13.674-1.836c4.319-1.046,8.359-2.501,12.04-4.277
		c7.362-3.577,13.19-8.487,17.398-13.676c4.164-5.243,6.76-10.626,8.52-15.189c1.616-4.628,2.656-8.391,3.162-11.004
		c0.511-2.619,0.783-4.016,0.783-4.016l0.039-0.199c0.211-1.082,1.259-1.788,2.341-1.577c1.051,0.205,1.747,1.206,1.591,2.255
		c0,0-0.221,1.475-0.637,4.239c-0.43,2.761-1.295,6.792-2.883,11.802c-1.725,4.953-4.336,10.894-8.749,16.843
		c-4.461,5.858-10.762,11.699-18.914,15.741c-4.051,2.037-8.482,3.706-13.188,4.923c-4.707,1.219-9.687,1.932-14.812,2.23
		c-10.253,0.572-21.126-0.618-31.849-3.772l-2.013-0.599l-1.996-0.686c-1.34-0.438-2.659-0.954-3.979-1.485
		c-1.325-0.492-2.645-1.127-3.972-1.716c-1.336-0.594-2.519-1.257-3.792-1.886c-5.249-2.691-9.989-6.485-13.928-10.981
		c-3.915-4.527-6.996-9.756-9.33-15.274c-2.335-5.527-3.81-11.394-4.646-17.317c-1.694-11.866-0.382-24.063,3.405-35.194
		c1.9-5.566,4.446-10.869,7.587-15.715c0.826-1.184,1.649-2.363,2.469-3.54c0.9-1.12,1.761-2.254,2.686-3.35
		c0.97-1.058,1.922-2.175,2.902-3.166c1-0.96,1.941-1.917,2.977-2.869c8.138-7.743,17.996-12.945,27.864-15.614
		c9.888-2.691,19.772-2.961,28.558-1.452c8.788,1.541,16.52,4.729,22.497,8.833c0.378,0.25,0.752,0.498,1.124,0.744
		c0.364,0.257,0.709,0.534,1.059,0.798c0.694,0.536,1.389,1.046,2.046,1.578c1.257,1.134,2.535,2.152,3.599,3.308
		c0.547,0.561,1.083,1.109,1.607,1.646c0.486,0.572,0.961,1.132,1.426,1.679c0.964,1.065,1.718,2.214,2.495,3.252
		c2.984,4.257,4.616,8.016,5.684,10.597c0.487,1.289,0.793,2.282,1.032,2.949c0.229,0.668,0.346,1.013,0.346,1.013
		c0.124,0.361-0.069,0.755-0.431,0.879c-0.347,0.118-0.724-0.055-0.863-0.388L150.472,449.366z"/>
</g>
<g>
	<path d="M194.957,507.593l1.653-0.169c0.575-0.036,1.162-0.092,1.729-0.109c1.137-0.05,2.272-0.064,3.408-0.036
		c2.271,0.053,4.537,0.251,6.789,0.607c2.25,0.357,4.486,0.872,6.678,1.598c2.189,0.728,4.34,1.666,6.354,2.924
		c0.499,0.323,1.007,0.631,1.478,1.007c0.484,0.354,0.959,0.723,1.403,1.14c0.464,0.39,0.891,0.826,1.303,1.281
		c0.436,0.431,0.795,0.939,1.175,1.427c0.39,0.48,0.673,1.045,1.009,1.567c0.297,0.548,0.552,1.122,0.811,1.69
		c0.195,0.593,0.432,1.178,0.581,1.783c0.12,0.609,0.307,1.216,0.359,1.832c0.166,1.23,0.188,2.465,0.101,3.677
		c-0.071,0.599-0.101,1.212-0.212,1.8l-0.352,1.76c-0.323,1.138-0.637,2.282-1.081,3.36c-0.38,1.114-0.921,2.132-1.389,3.194
		c-0.386,0.876-1.395,1.283-2.276,0.93l-0.131-0.053c-2.26-0.909-4.856-1.139-7.432-0.73c-2.577,0.37-5.128,1.259-7.496,2.506
		c-2.372,1.239-4.586,2.813-6.548,4.641c-1.969,1.823-3.651,3.938-4.974,6.227c-1.318,2.291-2.252,4.777-2.675,7.335
		c-0.436,2.558-0.317,5.18,0.31,7.697c0.628,2.517,1.71,4.944,3.191,7.159c0.295,0.465,0.802,1.219,1.162,1.645l0.55,0.616
		c0.179,0.209,0.44,0.41,0.653,0.617c0.426,0.438,0.962,0.762,1.442,1.144c0.544,0.307,1.042,0.677,1.628,0.929
		c2.249,1.141,4.831,1.758,7.467,2.001c2.637,0.271,5.349,0.14,8.016-0.264c2.668-0.403,5.305-1.094,7.804-2.086
		c2.498-0.98,4.885-2.241,6.917-3.846c1.021-0.791,1.955-1.669,2.713-2.633c0.773-0.952,1.407-1.979,1.766-3.055
		c0.213-0.542,0.465-1.351,0.645-1.953c0.18-0.61,0.344-1.243,0.489-1.9c0.289-1.297,0.492-2.606,0.595-3.926
		c0.104-1.319,0.106-2.646,0.029-3.991c-0.073-1.354-0.248-2.7-0.391-4.207c-0.063-0.761-0.135-1.555-0.058-2.529
		c0.051-0.492,0.118-1.02,0.343-1.609c0.192-0.576,0.569-1.18,1.02-1.664c0.951-0.962,2.005-1.337,2.879-1.586
		c0.901-0.251,1.695-0.323,2.499-0.412c0.068-0.008,0.137-0.01,0.203-0.008l0.199,0.01c0.399,0.019,0.807,0.022,1.232-0.062
		c0.424-0.079,0.86-0.198,1.296-0.394c0.219-0.085,0.438-0.186,0.653-0.311c0.219-0.106,0.435-0.234,0.646-0.377
		c0.217-0.129,0.427-0.275,0.634-0.436c0.212-0.147,0.419-0.308,0.62-0.483c0.41-0.331,0.802-0.705,1.18-1.094
		c0.382-0.386,0.74-0.803,1.092-1.228c0.699-0.854,1.323-1.785,1.878-2.752c0.276-0.483,0.543-0.976,0.773-1.481
		c0.243-0.5,0.452-1.014,0.648-1.529c0.195-0.516,0.357-1.037,0.505-1.56c0.139-0.524,0.247-1.047,0.333-1.567l0.09-0.774
		l0.031-0.758c-0.01-0.493-0.041-0.978-0.134-1.423c-0.097-0.439-0.21-0.868-0.407-1.216c-0.168-0.374-0.421-0.66-0.674-0.948
		l-0.153-0.173c-0.728-0.826-0.648-2.087,0.178-2.814c0.795-0.701,1.995-0.649,2.733,0.091c0.592,0.595,1.129,1.263,1.49,1.998
		c0.4,0.724,0.625,1.489,0.796,2.239c0.164,0.753,0.223,1.494,0.241,2.225l-0.029,1.078l-0.108,1.052
		c-0.396,2.77-1.383,5.284-2.664,7.619c-0.648,1.165-1.379,2.285-2.217,3.339c-0.422,0.524-0.855,1.042-1.329,1.533
		c-0.469,0.494-0.959,0.975-1.494,1.421c-0.523,0.455-1.087,0.881-1.696,1.265c-0.297,0.198-0.606,0.385-0.936,0.552
		c-0.316,0.181-0.651,0.34-1.002,0.482c-0.683,0.303-1.43,0.529-2.208,0.675c-0.778,0.152-1.603,0.177-2.425,0.119l0.402,0.002
		c-0.616,0.071-1.254,0.142-1.732,0.287c-0.495,0.131-0.812,0.327-0.87,0.396c-0.041,0.051-0.121,0.166-0.168,0.645
		c-0.039,0.454,0.002,1.094,0.065,1.758c0.132,1.342,0.334,2.835,0.424,4.341c0.095,1.512,0.102,3.055-0.011,4.59
		c-0.111,1.535-0.339,3.063-0.666,4.562c-0.164,0.74-0.359,1.493-0.586,2.256c-0.234,0.767-0.405,1.328-0.704,2.122
		c-0.563,1.641-1.47,3.084-2.495,4.348c-1.02,1.282-2.193,2.374-3.432,3.335c-2.475,1.94-5.213,3.364-8.038,4.474
		c-2.826,1.116-5.764,1.88-8.756,2.33c-2.991,0.447-6.044,0.597-9.105,0.28c-3.053-0.312-6.136-1.049-8.995-2.522
		c-0.727-0.329-1.396-0.806-2.086-1.22c-0.645-0.501-1.327-0.947-1.909-1.535c-0.299-0.291-0.604-0.536-0.894-0.867l-0.86-1.004
		c-0.536-0.686-0.823-1.131-1.297-1.87c-1.676-2.561-2.954-5.446-3.683-8.491c-0.73-3.044-0.848-6.264-0.295-9.349
		c0.536-3.09,1.682-6.033,3.239-8.687c3.13-5.32,7.823-9.507,13.229-12.292c2.708-1.393,5.646-2.404,8.743-2.825
		c3.076-0.453,6.385-0.201,9.436,1.071l-2.407,0.876c0.423-0.95,0.933-1.878,1.268-2.851c0.406-0.957,0.676-1.938,0.97-2.915
		l0.307-1.477c0.1-0.492,0.119-0.984,0.187-1.477c0.08-0.982,0.068-1.959-0.052-2.913c-0.03-0.483-0.183-0.937-0.262-1.409
		c-0.108-0.464-0.292-0.903-0.428-1.359c-0.199-0.431-0.385-0.869-0.606-1.291c-0.263-0.4-0.463-0.836-0.767-1.214
		c-0.294-0.383-0.557-0.788-0.905-1.136c-0.32-0.367-0.655-0.726-1.033-1.049c-0.352-0.347-0.742-0.658-1.144-0.961
		c-0.383-0.321-0.816-0.589-1.235-0.872c-1.704-1.105-3.603-1.979-5.579-2.671c-1.979-0.691-4.041-1.204-6.134-1.571
		c-2.093-0.366-4.22-0.589-6.351-0.673c-1.065-0.043-2.132-0.047-3.196-0.019c-0.534,0.008-1.045,0.051-1.568,0.073l-1.636,0.139
		l-0.014,0.002c-0.832,0.07-1.564-0.547-1.635-1.379C193.533,508.403,194.139,507.676,194.957,507.593z"/>
</g>
<g>
	<path d="M77.342,375.986c0,0-0.959,0.257-2.637,0.708c-0.419,0.111-0.884,0.236-1.39,0.371c-0.5,0.144-1.002,0.353-1.559,0.545
		c-0.551,0.198-1.137,0.408-1.754,0.631c-0.621,0.2-1.259,0.48-1.919,0.793c-1.32,0.616-2.782,1.201-4.217,2.058
		c-0.73,0.398-1.48,0.807-2.246,1.226c-0.735,0.472-1.485,0.954-2.249,1.445c-0.381,0.244-0.765,0.491-1.152,0.739
		c-0.381,0.258-0.744,0.549-1.121,0.823c-0.747,0.558-1.502,1.121-2.265,1.689c-0.722,0.617-1.451,1.239-2.182,1.864
		c-0.362,0.314-0.735,0.618-1.09,0.943l-1.033,1.012c-0.68,0.684-1.396,1.328-2.042,2.035c-0.644,0.709-1.284,1.414-1.92,2.114
		c-0.659,0.679-1.189,1.457-1.78,2.167c-0.574,0.724-1.16,1.424-1.646,2.178c-0.508,0.735-1.007,1.459-1.496,2.168
		c-0.438,0.736-0.865,1.457-1.281,2.159c-0.207,0.351-0.411,0.696-0.612,1.037c-0.173,0.354-0.344,0.702-0.511,1.045
		c-0.336,0.683-0.661,1.343-0.972,1.976c-0.495,1.309-1.027,2.486-1.348,3.562c-0.29,1.081-0.62,2.011-0.764,2.789
		c-0.216,1.556-0.996,2.36-0.996,2.359l-0.262,0.271c-0.854,0.882-2.261,0.903-3.142,0.05c-0.259-0.251-0.447-0.56-0.557-0.879
		c0-0.001-0.388-1.141,0.08-2.989c0.217-0.918,0.63-1.971,1.028-3.206c0.428-1.223,1.071-2.518,1.701-3.962
		c0.374-0.687,0.764-1.402,1.168-2.143c0.202-0.37,0.408-0.745,0.616-1.127c0.235-0.363,0.474-0.731,0.716-1.105
		c0.487-0.744,0.987-1.509,1.498-2.29c0.56-0.742,1.132-1.5,1.714-2.271c0.562-0.787,1.22-1.513,1.868-2.263
		c0.665-0.733,1.271-1.536,2.003-2.232c0.709-0.716,1.424-1.438,2.142-2.161c0.729-0.712,1.526-1.356,2.287-2.037l1.153-1.006
		c0.395-0.323,0.807-0.623,1.208-0.935c0.809-0.614,1.614-1.227,2.413-1.833c0.836-0.554,1.666-1.104,2.486-1.646
		c0.413-0.268,0.811-0.549,1.227-0.798c0.422-0.238,0.841-0.476,1.256-0.711c0.83-0.469,1.646-0.93,2.445-1.38
		c0.831-0.391,1.644-0.772,2.435-1.145c1.56-0.785,3.138-1.3,4.557-1.844c1.398-0.58,2.81-0.868,3.994-1.233
		c0.6-0.16,1.162-0.343,1.677-0.452c0.515-0.095,0.988-0.183,1.415-0.261c1.708-0.313,2.685-0.493,2.685-0.493
		c0.458-0.084,0.897,0.219,0.982,0.678C78.034,375.454,77.761,375.873,77.342,375.986z"/>
</g>
<path d="M192.012,224.048c-0.574,2.275-0.839,4.611-1.414,6.886c-0.694,2.75,3.509,3.406,3.875,0.524
	c0.296-2.326,0.274-4.674,0.57-7C195.266,222.707,192.43,222.397,192.012,224.048z"/>
<path d="M99.111,430.41c-5.007-1.164-0.074-1.385,2.307-1.35c2.494,0.037,5.179,0.441,7.646-0.087
	c3.689-0.79,7.835-5.013,3.317-7.753c-5.608-3.403-15.964-1.756-21.881-1.031c-1.613,0.197-1.653,2.387,0,2.539
	c4.644,0.429,9.052,0.031,13.683,0.948c1.343,0.267,2.695,0.446,4.034,0.746c0.028,0.006,0.054,0.016,0.082,0.022
	c-0.171,0.039-0.345,0.067-0.525,0.079c-4.596,0.48-9.774-1.3-13.986,1.298c-3.514,2.168-1.973,6.414,1.157,7.828
	c3.1,1.4,7.623,1.373,11.278,2.45c-4.295,0.412-9.544,0.651-9.544,4.497c0,3.027,2.821,4.707,5.881,5.798
	c-1.64,0.726-3.237,1.531-4.689,2.632c-1.35,1.023-1.607,3.713,0.534,4.089c1.563,0.274,2.573,1.084,3.828,1.869
	c-0.14,0.517-0.307,0.836-0.702,1.474c-1.435,2.324-1.396,5.43,1.17,6.866c0.684,0.383,1.815,0.233,2.165-0.567
	c0.735-1.688,0.451-3.392,1.515-4.968c0.65-0.964,1.048-3.509,0.724-4.685c-0.325-1.181-1.564-2.143-3.033-2.867
	c1.942-0.919,4.049-1.547,6.031-2.393c1.85-0.789,1.109-3.505-0.522-3.994c-1.4-0.42-2.822-0.761-4.221-1.188
	c-1.093-0.334-2.135-0.763-3.156-1.273c-0.161-0.08-0.291-0.135-0.415-0.185c0.038-0.005,0.067-0.003,0.107-0.011
	c3.695-0.729,7.888-0.286,11.203-2.355c1.227-0.766,1.403-2.366,0.44-3.42C110.114,431.668,103.741,431.485,99.111,430.41z"/>
<path d="M86.772,488.246c-0.412-1.428-0.785-1.732-2.137-2.276c-0.546-0.22-0.875,0.646-0.391,0.928
	c0.131,0.214,0.262,0.428,0.393,0.643c-1.655-0.068-3.032,0.166-4.907,0.438c-0.34,0.05-0.623,0.402-0.71,0.711
	c-1.185,4.173-6.714,0.272-9.195-0.404c-0.639-0.175-1.324,0.209-1.499,0.851c-0.46,1.69-0.903,3.38-1.452,5.037
	c-2.108-0.752-4.089-1.728-6.354-2.096c-1.277-0.208-2.413,0.518-2.472,1.883c-0.07,1.614-0.1,3.229-0.123,4.846
	c-1.916-0.733-3.834-1.865-5.81-1.321c-1.612,0.443-2.243,1.709-2.43,3.169c-1.26-1.229-1.995-2.859-2.613-4.765
	c-0.851-2.624-5-1.501-4.144,1.143c1.481,4.57,3.86,7.895,8.5,9.5c1.73,0.6,2.843-1.174,2.643-2.643
	c-0.388-2.848-1.3-2.495,1.206-1.474c1.561,0.636,3.039,1.052,4.723,1.158c1.139,0.071,2.128-1.016,2.113-2.113
	c-0.024-1.729-0.051-3.458-0.094-5.187c1.854,0.535,3.611,1.513,5.492,1.96c0.982,0.233,1.98-0.296,2.262-1.284
	c0.565-1.98,0.699-3.868,0.83-5.844c2.814,1.151,6.076,3.486,8.951,1.802c0.939-0.55,1.444-1.34,1.377-2.447
	c-0.098-1.615,4.008-1.211,5.069-1.199C86.517,489.265,86.916,488.743,86.772,488.246z"/>
<path d="M147.5,512.11c-2.736,0.336-4.627,1.643-6.732,3.357c-1.226,0.999-2.375,2.072-3.655,3.007
	c-1.128,0.823-4.202,1.845-2.888-0.549c2.424-4.413,6.689-7.743,4.338-13.173c-0.745-1.72-3.288-1.389-4.126,0
	c-0.835,1.383-2.21,2.511-3.48,3.476c-0.552,0.402-1.128,0.764-1.73,1.084c-0.042,0.023-0.064,0.051-0.102,0.075
	c0.69-2.154,1.535-4.3,1.989-6.484c0.251-1.205-0.768-2.438-2.058-2.058c-2.077,0.614-3.963,2.402-6.085,2.155
	c1.8-5.705-1.754-7.313-6.917-7.818c0.52-1.06,1.039-2.119,1.559-3.178c1.276-0.869,0.138-2.895-1.223-2.092
	c-2.637,1.558-3.872,3.45-3.815,6.546c0.015,0.845,0.643,1.338,1.427,1.427c3.926,0.445,7.941-0.037,5.685,5.305
	c-0.323,0.763-0.239,1.626,0.546,2.084c2.551,1.486,4.237,1.01,6.139,0.195c-1.453,2.834-3.03,6.079-0.565,7.893
	c1.674,1.231,3.728,0.988,5.722,0.057c-2.26,2.748-4.587,5.554-1.94,8.848c1.964,2.443,4.993,3.012,7.872,2.061
	c1.665-0.55,3.155-1.904,4.64-3.238c-0.087,0.215-0.174,0.43-0.236,0.644c-1.015,3.462,4.005,4.647,5.273,1.453
	c1.182-2.977,3.149-4.896,3.212-8.227C150.375,513.547,149.025,511.921,147.5,512.11z"/>
<path d="M220.056,556.627c-0.704-0.188-1.407-0.188-2.111,0c-0.426,0.117-0.775,0.306-1.096,0.527
	c-0.767,0.292-1.383,0.836-1.842,1.576c-0.628,1.013-0.628,2.442,0,3.455c0.454,0.732,1.061,1.275,1.815,1.569
	c0.062,0.041,0.108,0.096,0.173,0.134c0.917,0.537,2.035,0.683,3.061,0.4c1.704-0.469,2.917-2.064,2.917-3.831
	S221.76,557.096,220.056,556.627z"/>
<path d="M154.314,465.285c-1.791,0.986-3.37,2.268-4.947,3.559c-1.669,1.366-3.458,2.467-5.171,3.739
	c-1.411,1.047-0.623,3.353,1.228,2.913c4.102-0.975,6.866-5.628,10.262-7.863C157.144,466.673,155.86,464.433,154.314,465.285z"/>
<path d="M154.601,474.512c-1.688,0.335-3.106,1.845-4.415,2.891c-1.513,1.209-3.009,2.368-4.739,3.255
	c-2.388,1.222-0.268,4.883,2.105,3.602c1.66-0.895,3.143-2.043,4.593-3.24c1.409-1.162,3.414-2.592,4.149-4.304
	C156.818,475.497,155.98,474.239,154.601,474.512z"/>
<path d="M161.136,480.246c-1.085,1.909-3.175,4.216-5.278,5.004c-2.025,0.758-3.923,2.626-5.601,3.966
	c-1.746,1.395,0.778,4.01,2.486,2.486c0.885-0.79,1.794-1.55,2.707-2.309c1.164-0.967,1.963-2.099,2.998-3.171
	c1.492-1.544,3.163-3.45,3.459-5.651C161.967,480.128,161.392,479.794,161.136,480.246z"/>
<path d="M166.221,227.622c-1.854-6.42-9.879-0.443-12.074,2.424c-1.826,2.386-2.784,4.824-2.068,7.842
	c0.783,3.3,4.125,5.678,5.701,8.575c1.228,2.256,4.685,0.24,3.44-2.011c-1.604-2.902-6.186-6.097-5.671-9.651
	c0.307-2.12,1.817-3.704,3.318-5.083c1.862-1.709,3.454-2.242,5.494-0.668C165.278,229.758,166.502,228.598,166.221,227.622z"/>
<path d="M198.219,277.874c-1.575-1.087-3.422-1.679-4.977-2.778c-1.994-1.409-3.09-3.654-4.473-5.587
	c-0.469-0.654-1.729-0.516-1.66,0.45c0.171,2.421,1.456,4.455,2.968,6.312c1.718,2.11,3.179,4.531,5.704,5.772
	C198.588,283.423,200.78,279.642,198.219,277.874z"/>
</svg>
